<svg width="584" height="61" viewBox="0 0 584 61" fill="none" xmlns="http://www.w3.org/2000/svg">
<path d="M34.6719 33.2422V35.8789H43.168V53.3594C40.043 56.4193 36.0391 57.9492 31.1562 57.9492C22.3021 57.9492 16.8008 53.0664 14.6523 43.3008C13.8711 39.7852 13.4805 35.6185 13.4805 30.8008C13.5456 12.5716 19.6003 3.42448 31.6445 3.35938C38.8711 3.35938 44.0469 6.58203 47.1719 13.0273C48.2786 15.4362 49.2227 18.3008 50.0039 21.6211H52.8359L52.4453 1.50391L43.4609 3.35938C39.099 1.40625 34.5091 0.429688 29.6914 0.429688C21.1628 0.429688 14.099 3.09896 8.5 8.4375C2.83594 13.9714 0.00390625 21.2956 0.00390625 30.4102C0.00390625 41.6732 4.04036 50.0716 12.1133 55.6055C17.3216 59.1211 23.2461 60.8789 29.8867 60.8789C35.1602 60.8789 39.9453 59.8047 44.2422 57.6562L54.8867 60V35.8789H61.5273V33.2422H34.6719ZM117.191 55.9961C117.126 58.5352 117.647 59.9674 118.754 60.293C119.21 60.4232 119.796 60.4883 120.512 60.4883V41.543H117.582C114.848 51.3737 109.639 56.8424 101.957 57.9492C100.85 58.0794 99.7435 58.1445 98.6367 58.1445C86.918 58.0143 81.026 48.7695 80.9609 30.4102C80.9609 16.1523 84.9323 7.46094 92.875 4.33594C94.8281 3.61979 96.944 3.26172 99.2227 3.26172C106.579 3.26172 111.885 6.875 115.141 14.1016C115.857 15.7943 116.508 17.6823 117.094 19.7656H120.219L119.926 0.917969C118.298 0.917969 117.322 1.47135 116.996 2.57812C116.866 3.22917 116.801 4.17318 116.801 5.41016C111.397 2.08984 105.147 0.429688 98.0508 0.429688C87.3086 0.429688 79.1055 4.23828 73.4414 11.8555C69.4049 17.3242 67.3867 23.5742 67.3867 30.6055C67.3867 39.069 70.0885 46.1654 75.4922 51.8945C81.2214 57.9492 88.7409 60.9766 98.0508 60.9766C104.757 60.9115 111.137 59.2513 117.191 55.9961ZM350.785 4.04297H358.598V38.3203C358.728 53.3594 366.768 60.9115 382.719 60.9766C393.396 60.9766 400.069 56.8424 402.738 48.5742C403.715 45.3841 404.203 41.5755 404.203 37.1484V4.04297H412.016V1.40625H392.875V4.04297H400.688V37.7344C400.622 51.276 395.316 58.0794 384.77 58.1445C377.413 58.1445 372.921 54.2708 371.293 46.5234C370.772 43.9844 370.512 41.0221 370.512 37.6367V4.04297H378.324V1.40625H350.785V4.04297Z" fill="#FEAFBE"/>
<path d="M171.879 4.04297C178.259 4.04297 181.84 7.65625 182.621 14.8828C182.686 15.7292 182.719 16.6081 182.719 17.5195C182.719 26.1784 179.236 30.7682 172.27 31.2891C171.879 31.2891 171.488 31.2891 171.098 31.2891H164.652V4.04297H171.879ZM174.418 60C174.027 58.3724 173.148 57.4935 171.781 57.3633H164.652V34.2188H172.855C183.858 34.2188 190.922 30.8984 194.047 24.2578C195.089 22.0443 195.609 19.6029 195.609 16.9336C195.609 10.7487 192.875 6.32161 187.406 3.65234C184.346 2.15495 180.635 1.40625 176.273 1.40625H144.828V4.04297H152.641V57.3633H144.828V60H174.418ZM442.68 60V57.3633H434.867V33.2422H441.117L455.961 60.0977L472.367 60C472.367 58.5677 471.944 57.7539 471.098 57.5586C470.707 57.4935 470.316 57.4609 469.926 57.4609H467.875L452.543 32.168C459.184 30.4102 463.415 26.8945 465.238 21.6211C465.759 19.9935 466.02 18.3659 466.02 16.7383C466.02 11.8555 463.871 7.94922 459.574 5.01953C455.993 2.61068 451.632 1.40625 446.488 1.40625H415.043V4.04297H422.855V57.3633H415.043V60H442.68ZM441.605 4.04297C446.879 4.04297 450.427 6.48438 452.25 11.3672C452.901 13.125 453.227 15.013 453.227 17.0312C453.227 22.2396 451.566 26.0482 448.246 28.457C446.488 29.694 444.47 30.3125 442.191 30.3125H434.867V4.04297H441.605Z" fill="#B3DFD3"/>
<path d="M227.348 60C226.957 58.3724 226.078 57.4935 224.711 57.3633H219.535V4.04297H227.348V1.40625H199.711V4.04297H207.523V57.3633H199.711V60H227.348ZM534.477 60C534.477 58.5026 534.021 57.6562 533.109 57.4609C532.849 57.3958 532.491 57.3633 532.035 57.3633H529.008L506.156 1.40625H500.102L478.617 57.3633H472.367V60H490.141C490.141 58.5026 489.685 57.6562 488.773 57.4609C488.448 57.3958 488.09 57.3633 487.699 57.3633H482.523L489.652 38.6133H509.379L516.703 57.3633H509.965V60H534.477ZM508.207 35.6836H490.727L499.418 12.832L508.207 35.6836Z" fill="#A45A49"/>
<path d="M274.418 4.04297H282.426V43.6914L247.074 1.40625H231.547V4.04297H239.359V57.3633H231.547V60H251.664C251.273 58.3724 250.395 57.4935 249.027 57.3633H243.363V15.2734L281.254 60.4883L286.43 59.5117V4.04297H294.242V1.40625H274.418V4.04297ZM583.988 43.9844C583.988 38.4505 580.928 33.7956 574.809 30.0195C573.897 29.4987 570.382 27.7409 564.262 24.7461C558.663 21.9466 555.18 19.2122 553.812 16.543C553.096 15.1107 552.738 13.6458 552.738 12.1484C552.738 8.24219 554.626 5.57292 558.402 4.14062C559.9 3.55469 561.495 3.26172 563.188 3.26172C568.526 3.26172 572.562 5.18229 575.297 9.02344C577.12 11.6276 578.031 14.7201 578.031 18.3008H581.547V0.820312C579.724 0.820312 578.682 1.4388 578.422 2.67578C578.357 3.13151 578.324 3.65234 578.324 4.23828C573.181 1.69922 567.647 0.429688 561.723 0.429688C554.171 0.429688 548.409 2.44792 544.438 6.48438C541.833 9.15365 540.531 12.3112 540.531 15.957C540.531 21.4258 543.591 26.0156 549.711 29.7266C550.688 30.2474 554.268 32.0378 560.453 35.0977C566.182 37.8971 569.73 40.6641 571.098 43.3984C571.814 44.7656 572.172 46.1979 572.172 47.6953C572.172 52.2526 570.056 55.3776 565.824 57.0703C564.132 57.7865 562.243 58.1445 560.16 58.1445C552.413 58.1445 547.302 54.3359 544.828 46.7188C544.177 44.5703 543.754 42.2266 543.559 39.6875H540.043V60.1953C541.671 60.1953 542.647 59.707 542.973 58.7305C543.103 58.1445 543.168 57.2331 543.168 55.9961C548.246 59.3164 554.203 60.9766 561.039 60.9766C569.047 60.9766 575.199 58.8932 579.496 54.7266C582.491 51.7969 583.988 48.2161 583.988 43.9844Z" fill="#EFC764"/>
<path d="M337.504 60C336.983 58.3724 336.137 57.4935 334.965 57.3633H328.324V4.04297H331.254C336.007 4.04297 339.392 6.45182 341.41 11.2695C341.736 12.0508 342.029 12.8646 342.289 13.7109L344.828 21.8164H347.66L347.27 1.40625H297.465L296.977 21.8164H299.906L302.445 13.7109C304.008 8.63281 306.514 5.57292 309.965 4.53125C311.007 4.20573 312.178 4.04297 313.48 4.04297H316.312V57.3633H307.035V60H337.504Z" fill="#97D4D9"/>
</svg>
